<svg width="146" height="25" viewBox="0 0 146 25" fill="none" xmlns="http://www.w3.org/2000/svg">
<path d="M12.2779 4.15544C13.543 1.74633 16.0882 -0.0269008 18.7829 0.112683C20.2821 0.154041 21.8262 1.01739 22.404 2.50629C22.7228 3.66948 22.7676 4.88438 22.8821 6.0786C23.3503 12.1686 23.963 18.2431 24.471 24.3279C21.5622 24.3072 18.6534 24.3744 15.7445 24.2917C15.7047 23.3301 15.635 22.3789 15.5951 21.4225C12.5568 21.4225 9.51845 21.407 6.48012 21.4276C5.88241 22.3685 5.28471 23.3146 4.70693 24.271C3.13795 24.3279 1.56898 24.3382 0 24.3279C3.91995 17.4986 8.21346 10.902 12.2779 4.15544ZM9.46864 16.6611C11.3464 16.7128 13.2192 16.7025 15.0921 16.6973C14.9078 14.0245 14.6388 11.3569 14.4296 8.68933C12.5966 11.2122 11.0077 13.9366 9.46864 16.6611Z" fill="#ACACAC"/>
<path d="M27.0565 0.0822754C29.9554 0.113294 32.8493 0.0771083 35.7482 0.113297C36.1018 5.3296 36.6945 10.52 37.0731 15.7312C37.8501 14.842 38.4727 13.8339 39.0754 12.8154C41.6156 8.56587 44.2655 4.37836 46.8157 0.133976C54.8249 0.0564297 62.8292 0.123633 70.8335 0.0977841C70.4948 1.69007 70.0714 3.25652 69.6231 4.81779C67.4116 4.9522 65.1303 4.53862 62.9587 5.06593C61.1407 11.3679 59.6613 17.7732 57.8782 24.0804C55.2832 24.6749 52.5038 24.1372 49.8391 24.3337C51.3582 17.8146 53.4004 11.4299 54.7502 4.86948C52.7628 4.81262 50.7705 4.82296 48.7831 4.8333C45.4409 10.1737 42.1934 15.5813 38.8662 20.932C37.5363 23.0206 35.1953 24.4991 32.7347 24.3285C30.832 24.344 28.8646 22.8138 28.8895 20.72C28.2768 13.8442 27.6293 6.96324 27.0565 0.0822754Z" fill="#ACACAC"/>
<path d="M70.6833 4.31088C71.0967 0.971209 74.7677 -0.0989325 77.537 0.0871792C81.7508 0.118198 85.9696 0.0871797 90.1835 0.107859C89.8199 1.68464 89.4114 3.24591 89.0279 4.81752C85.5612 4.85888 82.0945 4.76582 78.6328 4.87955C78.0899 6.48735 77.6715 8.13651 77.3129 9.79601C80.7547 9.82702 84.1964 9.77533 87.6432 9.82186C87.2447 11.3986 86.8313 12.9702 86.4478 14.547C83.0259 14.6814 79.5941 14.4953 76.1772 14.6401C75.3355 16.1393 75.1811 17.9281 74.8125 19.5927C78.2393 19.6651 81.6711 19.6031 85.098 19.6082C84.6995 21.1643 84.2712 22.7101 83.8976 24.2714C79.619 24.3903 75.3405 24.3024 71.0619 24.3334C69.5826 24.3231 67.8741 24.3386 66.7534 23.165C65.9515 22.5395 66.2005 21.3918 66.4097 20.5336C67.8492 15.1312 69.2638 9.71846 70.6833 4.31088Z" fill="#ACACAC"/>
<path d="M89.3365 10.2199C92.0411 4.12477 98.4216 -0.243682 104.947 0.0871834C107.741 0.107862 110.535 0.0923519 113.324 0.118201C112.896 1.63811 112.488 3.15803 112.149 4.70379C108.677 5.09669 105.156 4.497 101.704 5.03465C99.8063 6.02725 98.9297 8.20889 98.2124 10.1527C97.5052 12.4067 96.8029 14.728 96.7879 17.1164C96.7431 18.2382 97.4006 19.5824 98.6259 19.5669C101.789 19.7271 104.967 19.5514 108.134 19.6341C107.756 21.1954 107.332 22.7411 106.904 24.2869C103.582 24.3851 100.255 24.3386 96.9373 24.2972C93.889 24.3231 90.9454 22.555 89.3814 19.8616C87.7177 16.9303 88.0564 13.2287 89.3365 10.2199Z" fill="#ACACAC"/>
<path d="M115.581 0.14928C118.261 0.0717339 120.946 0.0872411 123.625 0.10275C122.913 3.36488 121.912 6.54946 121.205 9.80641C122.953 9.80641 124.706 9.80124 126.455 9.80124C127.381 6.61149 128.163 3.37521 128.995 0.154447C131.679 0.0613915 134.364 0.102752 137.049 0.107921C134.972 8.17276 132.84 16.2169 130.738 24.2766C128.058 24.3645 125.379 24.318 122.704 24.318C123.481 21.061 124.452 17.8557 125.184 14.5885C123.466 14.6143 121.748 14.5264 120.034 14.635C118.804 17.7213 118.311 21.1024 117.359 24.3025C114.675 24.3231 111.995 24.3231 109.315 24.318C111.348 16.2479 113.599 8.2348 115.581 0.14928Z" fill="#ACACAC"/>
<path d="M140.993 0.206117C142.896 -0.564179 145.426 0.914372 145.322 3.14771C145.556 6.44086 140.998 8.91718 138.802 6.25992C137.009 4.18684 138.682 0.909205 140.993 0.206117ZM141.521 0.81615C139.315 1.10049 137.796 4.33159 139.554 6.03762C141.611 7.88322 145.078 5.49996 144.595 2.84787C144.425 1.37965 142.846 0.449096 141.521 0.81615Z" fill="#ACACAC"/>
<path d="M141.125 3.98171L140.849 5.22076H140.316L141.011 2.1189H141.77C142.105 2.1189 142.361 2.18608 142.539 2.32045C142.717 2.45341 142.807 2.6585 142.807 2.93573C142.807 3.16912 142.741 3.36643 142.611 3.52768C142.482 3.68751 142.29 3.8042 142.033 3.87775L142.593 5.22076H142.009L141.543 3.98171H141.125ZM141.222 3.56162H141.498C141.753 3.56162 141.943 3.50858 142.069 3.4025C142.195 3.29642 142.258 3.15073 142.258 2.96544C142.258 2.81692 142.214 2.71013 142.126 2.64507C142.037 2.58 141.9 2.54747 141.714 2.54747H141.447L141.222 3.56162Z" fill="#ACACAC"/>
</svg>
