<svg width="24" height="24" viewBox="0 0 24 24" fill="none" xmlns="http://www.w3.org/2000/svg">
<g clip-path="url(#clip0_1_116)">
<rect width="24" height="24" rx="12" fill="white" fill-opacity="0.3"/>
<path d="M12.9695 13.6577C12.7326 13.8944 12.4957 14.2495 12.3181 14.5455C11.2522 13.7168 10.3047 12.7106 9.47566 11.7044C9.83097 11.5269 10.1271 11.2901 10.3639 11.0534C11.5483 9.86958 11.1337 8.33068 9.9494 7.14691C8.76506 5.96314 7.28463 5.48963 6.04107 6.73259C4.7975 7.97555 4.67907 10.1063 5.62655 11.4677C7.34384 14.072 9.9494 16.6763 12.555 18.3927C13.9762 19.3398 16.108 19.1622 17.2923 17.9784C18.4767 16.7946 18.0622 15.2557 16.8778 14.072C15.6935 12.8882 14.1538 12.4147 12.9695 13.6577Z" stroke="white" stroke-width="1.2" stroke-miterlimit="10" stroke-linejoin="round"/>
<path d="M19 11C19 7.66667 16.3333 5 13 5" stroke="white" stroke-width="1.2" stroke-miterlimit="10" stroke-linecap="round" stroke-linejoin="round"/>
<path d="M16 11C16 9.34043 14.6531 8 13 8" stroke="white" stroke-width="1.2" stroke-miterlimit="10" stroke-linecap="round" stroke-linejoin="round"/>
</g>
<defs>
<clipPath id="clip0_1_116">
<rect width="24" height="24" rx="12" fill="white"/>
</clipPath>
</defs>
</svg>
