<svg width="168" height="48" viewBox="0 0 168 48" fill="none" xmlns="http://www.w3.org/2000/svg">
<rect width="168" height="48" rx="8" fill="#1E1E20"/>
<path d="M59.2235 12.2211C59.244 12.6792 59.1716 13.1366 59.0106 13.5659C58.8496 13.9951 58.6034 14.3874 58.2868 14.719C57.932 15.0853 57.5039 15.3725 57.0304 15.5619C56.5569 15.7513 56.0488 15.8386 55.5392 15.818C55.0267 15.8294 54.5174 15.7356 54.0426 15.5422C53.5679 15.3489 53.1378 15.0602 52.7791 14.694C52.0514 13.9496 51.6439 12.9499 51.6439 11.9089C51.6439 10.8679 52.0514 9.86824 52.7791 9.12384C53.3355 8.58017 54.0402 8.21306 54.8046 8.06862C55.5689 7.92419 56.359 8.00888 57.0754 8.31205C57.5257 8.49718 57.9274 8.78349 58.2494 9.14882L57.5874 9.81075C57.3394 9.51197 57.0252 9.27513 56.6696 9.11904C56.3141 8.96295 55.927 8.8919 55.5392 8.91153C55.0497 8.91491 54.5684 9.03816 54.1375 9.27048C53.7066 9.50281 53.3391 9.83715 53.0672 10.2443C52.7954 10.6514 52.6274 11.1189 52.5779 11.606C52.5284 12.093 52.599 12.5848 52.7835 13.0383C52.9679 13.4917 53.2607 13.8931 53.6361 14.2073C54.0115 14.5216 54.4581 14.7391 54.937 14.8408C55.4159 14.9425 55.9124 14.9254 56.3831 14.791C56.8539 14.6565 57.2845 14.4088 57.6374 14.0695C58.0189 13.6513 58.2401 13.1115 58.2619 12.5459H55.5392V11.6466H59.1736C59.202 11.8369 59.2187 12.0288 59.2235 12.2211Z" fill="white" stroke="white" stroke-width="0.236294" stroke-miterlimit="10"/>
<path d="M64.9435 9.099H61.5714V11.4719H64.6437V12.3712H61.5714V14.7441H64.9435V15.6683H60.5972V8.1748H64.9435V9.099Z" fill="white" stroke="white" stroke-width="0.236294" stroke-miterlimit="10"/>
<path d="M69.0399 15.6683H68.0783V9.099H65.9801V8.1748H71.1881V9.099H69.0399V15.6683Z" fill="white" stroke="white" stroke-width="0.236294" stroke-miterlimit="10"/>
<path d="M74.8599 15.6683V8.1748H75.8215V15.6683H74.8599Z" fill="white" stroke="white" stroke-width="0.236294" stroke-miterlimit="10"/>
<path d="M80.0928 15.6683H79.1311V9.099H77.033V8.1748H82.1785V9.099H80.0928V15.6683Z" fill="white" stroke="white" stroke-width="0.236294" stroke-miterlimit="10"/>
<path d="M91.9325 14.6939C91.5718 15.0549 91.1435 15.3413 90.672 15.5367C90.2006 15.7321 89.6952 15.8327 89.1849 15.8327C88.6746 15.8327 88.1692 15.7321 87.6978 15.5367C87.2263 15.3413 86.798 15.0549 86.4373 14.6939C85.7312 13.9434 85.3381 12.9518 85.3381 11.9213C85.3381 10.8909 85.7312 9.89929 86.4373 9.14875C86.7902 8.77757 87.2172 8.48462 87.6905 8.28885C88.1638 8.09307 88.6729 7.99884 89.1849 8.01224C89.6962 8.00415 90.2037 8.10081 90.6763 8.29627C91.1488 8.49172 91.5763 8.78184 91.9325 9.14875C92.2916 9.51404 92.5739 9.94759 92.7627 10.4238C92.9514 10.9 93.0429 11.4092 93.0315 11.9213C93.0479 12.4341 92.9588 12.9448 92.7698 13.4217C92.5807 13.8986 92.2958 14.3316 91.9325 14.6939ZM87.1492 14.0695C87.4152 14.3391 87.7322 14.5532 88.0816 14.6993C88.4311 14.8454 88.8061 14.9206 89.1849 14.9206C89.5637 14.9206 89.9387 14.8454 90.2881 14.6993C90.6376 14.5532 90.9546 14.3391 91.2206 14.0695C91.7595 13.4839 92.0586 12.7171 92.0586 11.9213C92.0586 11.1255 91.7595 10.3588 91.2206 9.77321C90.9546 9.50359 90.6376 9.28952 90.2881 9.1434C89.9387 8.99728 89.5637 8.92204 89.1849 8.92204C88.8061 8.92204 88.4311 8.99728 88.0816 9.1434C87.7322 9.28952 87.4152 9.50359 87.1492 9.77321C86.6103 10.3588 86.3112 11.1255 86.3112 11.9213C86.3112 12.7171 86.6103 13.4839 87.1492 14.0695Z" fill="white" stroke="white" stroke-width="0.236294" stroke-miterlimit="10"/>
<path d="M94.3928 15.6683V8.1748H95.5543L99.2011 14.0072V12.5585V8.1748H100.163V15.6683H99.1637L95.3545 9.5611V10.9973V15.6683H94.3928Z" fill="white" stroke="white" stroke-width="0.236294" stroke-miterlimit="10"/>
<path d="M85.101 26.5964C84.0487 26.5988 83.0208 26.9133 82.1473 27.4999C81.2737 28.0866 80.5938 28.9191 80.1933 29.8922C79.7929 30.8654 79.6901 31.9353 79.8978 32.9669C80.1055 33.9985 80.6145 34.9453 81.3603 35.6876C82.1061 36.4299 83.0553 36.9344 84.0878 37.1373C85.1203 37.3401 86.1898 37.2323 87.161 36.8273C88.1323 36.4223 88.9616 35.7385 89.5442 34.8622C90.1267 33.9859 90.4363 32.9565 90.4339 31.9042C90.444 31.2023 90.3129 30.5054 90.0482 29.8552C89.7834 29.205 89.3906 28.6147 88.893 28.1194C88.3954 27.6242 87.8033 27.2341 87.1518 26.9724C86.5004 26.7108 85.8029 26.5829 85.101 26.5964ZM85.101 35.1264C84.456 35.1715 83.8124 35.0216 83.2538 34.696C82.6952 34.3705 82.2474 33.8844 81.9687 33.3011C81.69 32.7177 81.5933 32.0639 81.6911 31.4248C81.7888 30.7857 82.0766 30.1908 82.517 29.7174C82.9573 29.244 83.5299 28.9141 84.1603 28.7704C84.7907 28.6268 85.4497 28.6761 86.0517 28.9119C86.6536 29.1478 87.1707 29.5593 87.5358 30.0929C87.9008 30.6266 88.0968 31.2577 88.0984 31.9042C88.1185 32.3139 88.0564 32.7234 87.9157 33.1087C87.775 33.494 87.5586 33.8472 87.2793 34.1475C86.9999 34.4478 86.6633 34.6891 86.2891 34.8573C85.915 35.0254 85.511 35.1169 85.101 35.1264ZM73.4611 26.5964C72.4089 26.5988 71.381 26.9133 70.5074 27.4999C69.6338 28.0866 68.9539 28.9191 68.5535 29.8922C68.1531 30.8654 68.0502 31.9353 68.2579 32.9669C68.4657 33.9985 68.9746 34.9453 69.7204 35.6876C70.4662 36.4299 71.4154 36.9344 72.4479 37.1373C73.4805 37.3401 74.55 37.2323 75.5212 36.8273C76.4924 36.4223 77.3217 35.7385 77.9043 34.8622C78.4868 33.9859 78.7964 32.9565 78.794 31.9042C78.8042 31.2023 78.673 30.5054 78.4083 29.8552C78.1436 29.205 77.7507 28.6147 77.2531 28.1194C76.7556 27.6242 76.1634 27.2341 75.512 26.9724C74.8605 26.7108 74.163 26.5829 73.4611 26.5964ZM73.4611 35.1264C72.8162 35.1715 72.1725 35.0216 71.6139 34.696C71.0553 34.3705 70.6076 33.8844 70.3289 33.3011C70.0502 32.7177 69.9534 32.0639 70.0512 31.4248C70.149 30.7857 70.4367 30.1908 70.8771 29.7174C71.3174 29.244 71.89 28.9141 72.5204 28.7704C73.1508 28.6268 73.8098 28.6761 74.4118 28.9119C75.0138 29.1478 75.5309 29.5593 75.8959 30.0929C76.2609 30.6266 76.4569 31.2577 76.4585 31.9042C76.4786 32.3139 76.4165 32.7234 76.2758 33.1087C76.1352 33.494 75.9188 33.8472 75.6394 34.1475C75.36 34.4478 75.0234 34.6891 74.6493 34.8573C74.2752 35.0254 73.8712 35.1169 73.4611 35.1264ZM59.6232 28.2324V30.4805H65.0185C64.9339 31.5393 64.4937 32.5384 63.7696 33.3155C63.2283 33.8669 62.5774 34.2986 61.8589 34.5826C61.1403 34.8665 60.3701 34.9965 59.5982 34.9641C58.0083 34.9641 56.4835 34.3325 55.3592 33.2082C54.235 32.084 53.6034 30.5592 53.6034 28.9693C53.6034 27.3794 54.235 25.8546 55.3592 24.7303C56.4835 23.6061 58.0083 22.9745 59.5982 22.9745C61.1224 22.9518 62.5942 23.5307 63.6946 24.5856L65.2807 22.9995C64.5364 22.2633 63.6526 21.683 62.6811 21.2927C61.7096 20.9024 60.67 20.7099 59.6232 20.7265C58.5129 20.6832 57.4053 20.8646 56.3668 21.2597C55.3283 21.6548 54.3802 22.2555 53.5794 23.0257C52.7786 23.796 52.1415 24.72 51.7063 25.7423C51.2711 26.7647 51.0468 27.8644 51.0468 28.9755C51.0468 30.0867 51.2711 31.1864 51.7063 32.2087C52.1415 33.2311 52.7786 34.1551 53.5794 34.9253C54.3802 35.6956 55.3283 36.2963 56.3668 36.6914C57.4053 37.0864 58.5129 37.2678 59.6232 37.2246C60.6915 37.2673 61.7568 37.0835 62.7491 36.6853C63.7414 36.2871 64.6382 35.6835 65.3807 34.9141C66.6922 33.4734 67.391 31.5785 67.329 29.6312C67.3334 29.1625 67.2958 28.6944 67.2166 28.2324H59.6232ZM116.211 29.9809C115.886 29.0227 115.277 28.1859 114.465 27.5816C113.653 26.9772 112.677 26.6336 111.665 26.5964C110.982 26.595 110.306 26.7338 109.679 27.0042C109.051 27.2745 108.486 27.6707 108.018 28.1682C107.55 28.6656 107.188 29.2538 106.956 29.8965C106.725 30.5391 106.627 31.2224 106.67 31.9042C106.659 33.0443 107.017 34.1572 107.691 35.0768C108.365 35.9964 109.319 36.6732 110.409 37.0062C111.5 37.3392 112.669 37.3106 113.741 36.9245C114.814 36.5384 115.733 35.8157 116.361 34.8642L114.55 33.6152C114.28 34.0652 113.898 34.4368 113.44 34.6931C112.982 34.9494 112.465 35.0816 111.94 35.0765C111.399 35.0988 110.863 34.9569 110.404 34.6694C109.945 34.3818 109.584 33.9621 109.367 33.4654L116.474 30.5304L116.211 29.9809ZM108.968 31.7544C108.942 31.3664 108.995 30.9773 109.122 30.6099C109.249 30.2424 109.448 29.904 109.707 29.6144C109.966 29.3248 110.281 29.0898 110.632 28.9233C110.983 28.7568 111.364 28.662 111.753 28.6446C112.155 28.62 112.556 28.7147 112.905 28.9169C113.254 29.1191 113.535 29.4197 113.714 29.7811L108.968 31.7544ZM103.198 36.8999H105.533V21.2885H103.198V36.8999ZM99.3761 27.7828H99.2887C98.9398 27.3855 98.5092 27.0682 98.0264 26.8526C97.5435 26.6371 97.0198 26.5284 96.4911 26.5339C95.1263 26.6001 93.8392 27.1889 92.8967 28.1782C91.9542 29.1675 91.4284 30.4816 91.4284 31.848C91.4284 33.2145 91.9542 34.5285 92.8967 35.5179C93.8392 36.5072 95.1263 37.096 96.4911 37.1622C97.0206 37.1728 97.5459 37.0663 98.0295 36.8504C98.5131 36.6346 98.943 36.3145 99.2887 35.9132H99.3761V36.6751C99.3761 38.7108 98.2895 39.7974 96.541 39.7974C95.957 39.7845 95.3899 39.5984 94.9118 39.2626C94.4337 38.9269 94.0662 38.4566 93.8559 37.9115L91.8326 38.7483C92.2067 39.6878 92.8571 40.4916 93.6978 41.0536C94.5385 41.6155 95.5299 41.9091 96.541 41.8955C99.2762 41.8955 101.537 40.2844 101.537 36.3629V26.9086H99.3761V27.7828ZM96.6909 35.1264C95.8726 35.0754 95.1046 34.7144 94.5432 34.1169C93.9818 33.5194 93.6692 32.7303 93.6692 31.9105C93.6692 31.0906 93.9818 30.3016 94.5432 29.7041C95.1046 29.1066 95.8726 28.7455 96.6909 28.6945C97.0909 28.7118 97.4833 28.8093 97.8447 28.9813C98.2062 29.1533 98.5294 29.3963 98.7951 29.6957C99.0607 29.9952 99.2635 30.3451 99.3912 30.7245C99.5189 31.1039 99.569 31.5051 99.5384 31.9042C99.5725 32.3047 99.525 32.708 99.3988 33.0896C99.2725 33.4713 99.0702 33.8233 98.804 34.1245C98.5379 34.4257 98.2133 34.6698 97.8501 34.842C97.4869 35.0142 97.0926 35.111 96.6909 35.1264ZM127.152 21.2885H121.557V36.8999H123.892V30.98H127.152C127.818 31.0279 128.486 30.938 129.115 30.7162C129.745 30.4943 130.321 30.1452 130.81 29.6905C131.298 29.2359 131.688 28.6855 131.954 28.0736C132.221 27.4618 132.358 26.8016 132.358 26.1343C132.358 25.4669 132.221 24.8068 131.954 24.1949C131.688 23.583 131.298 23.0326 130.81 22.578C130.321 22.1233 129.745 21.7742 129.115 21.5523C128.486 21.3305 127.818 21.2407 127.152 21.2885ZM127.152 28.7819H123.892V23.4616H127.202C127.553 23.4616 127.9 23.5307 128.225 23.665C128.549 23.7993 128.844 23.9962 129.092 24.2444C129.34 24.4926 129.537 24.7872 129.671 25.1115C129.805 25.4357 129.875 25.7833 129.875 26.1343C129.875 26.4852 129.805 26.8328 129.671 27.157C129.537 27.4813 129.34 27.7759 129.092 28.0241C128.844 28.2723 128.549 28.4692 128.225 28.6035C127.9 28.7378 127.553 28.8069 127.202 28.8069L127.152 28.7819ZM141.564 26.5464C140.714 26.494 139.867 26.692 139.127 27.1159C138.388 27.5399 137.79 28.1712 137.405 28.9318L139.466 29.7936C139.674 29.4182 139.987 29.1111 140.366 28.9094C140.745 28.7077 141.174 28.6201 141.602 28.6571C141.898 28.6224 142.199 28.6472 142.486 28.7299C142.772 28.8126 143.04 28.9516 143.272 29.1388C143.505 29.3259 143.698 29.5576 143.84 29.8201C143.982 30.0826 144.07 30.3708 144.1 30.6678V30.8177C143.349 30.4229 142.513 30.2172 141.664 30.2182C139.441 30.2182 137.168 31.4671 137.168 33.7401C137.19 34.2233 137.309 34.6971 137.518 35.1334C137.726 35.5697 138.021 35.9596 138.383 36.2799C138.745 36.6003 139.168 36.8446 139.627 36.9983C140.085 37.152 140.57 37.212 141.052 37.1746C141.638 37.2071 142.223 37.083 142.745 36.8153C143.267 36.5475 143.709 36.1457 144.025 35.651H144.1V36.8999H146.348V30.8926C146.348 28.1575 144.275 26.5714 141.614 26.5714L141.564 26.5464ZM141.277 35.1015C140.515 35.1015 139.454 34.7143 139.454 33.7776C139.454 32.5287 140.778 32.1041 141.952 32.1041C142.693 32.0858 143.427 32.2669 144.075 32.6286C143.996 33.3069 143.675 33.9337 143.169 34.393C142.664 34.8522 142.01 35.1128 141.327 35.1264L141.277 35.1015ZM154.541 26.9086L151.868 33.6777H151.793L149.02 26.9086H146.523L150.681 36.3753L148.309 41.6333H150.744L157.138 26.9086H154.541ZM133.559 36.8999H135.882V21.2885H133.559V36.8999Z" fill="white"/>
<path d="M13.0387 8.84939C12.6271 9.33599 12.4171 9.9615 12.4517 10.5979V38.2238C12.4092 38.8612 12.6201 39.4896 13.0387 39.9723L13.1261 40.0722L28.6001 24.5982V24.2235L13.1261 8.76196L13.0387 8.84939Z" fill="url(#paint0_linear_1_375)"/>
<path d="M33.7206 29.7561L28.6001 24.5981V24.2234L33.7206 19.0654L33.833 19.1404L39.9652 22.6123C41.7137 23.599 41.7137 25.2226 39.9652 26.2217L33.858 29.6937L33.7206 29.7561Z" fill="url(#paint1_linear_1_375)"/>
<path d="M33.8705 29.6811L28.6001 24.4106L13.0386 39.9721C13.3915 40.2862 13.8433 40.467 14.3155 40.4829C14.7877 40.4989 15.2506 40.3491 15.6239 40.0595L33.8705 29.6811Z" fill="url(#paint2_linear_1_375)"/>
<path d="M33.8705 19.1402L15.6239 8.77427C15.253 8.48066 14.7905 8.32723 14.3176 8.34093C13.8448 8.35464 13.3919 8.53461 13.0386 8.8492L28.6001 24.4107L33.8705 19.1402Z" fill="url(#paint3_linear_1_375)"/>
<path opacity="0.2" d="M33.7206 29.5686L15.6239 39.8721C15.2641 40.1437 14.8257 40.2905 14.375 40.2905C13.9243 40.2905 13.4858 40.1437 13.1261 39.8721L13.0386 39.9596L13.1261 40.0595C13.4858 40.331 13.9243 40.4779 14.375 40.4779C14.8257 40.4779 15.2641 40.331 15.6239 40.0595L33.8705 29.681L33.7206 29.5686Z" fill="black"/>
<path opacity="0.12" d="M13.0386 39.7971C12.6375 39.3017 12.4409 38.6717 12.4891 38.0361V38.2235C12.4466 38.8609 12.6576 39.4893 13.0761 39.9719L13.1635 39.8845L13.0386 39.7971Z" fill="black"/>
<path opacity="0.12" d="M39.9652 26.0342L33.7206 29.5687L33.833 29.6811L39.9652 26.2091C40.3272 26.056 40.6412 25.8082 40.8742 25.4917C41.1071 25.1752 41.2505 24.8017 41.2891 24.4106C41.211 24.766 41.0505 25.0981 40.8205 25.3801C40.5906 25.6622 40.2976 25.8862 39.9652 26.0342Z" fill="black"/>
<path opacity="0.25" d="M15.6239 8.94901L39.9652 22.787C40.2976 22.935 40.5906 23.159 40.8206 23.4411C41.0505 23.7231 41.211 24.0552 41.2891 24.4106C41.2505 24.0195 41.1072 23.646 40.8742 23.3295C40.6412 23.013 40.3272 22.7652 39.9652 22.6121L15.6239 8.77416C13.8879 7.77503 12.4517 8.59932 12.4517 10.5976V10.7849C12.4891 8.78665 13.8879 7.96237 15.6239 8.94901Z" fill="white"/>
<defs>
<linearGradient id="paint0_linear_1_375" x1="27.2263" y1="10.3106" x2="6.26954" y2="31.2674" gradientUnits="userSpaceOnUse">
<stop stop-color="#00A0FF"/>
<stop offset="0.01" stop-color="#00A1FF"/>
<stop offset="0.26" stop-color="#00BEFF"/>
<stop offset="0.51" stop-color="#00D2FF"/>
<stop offset="0.76" stop-color="#00DFFF"/>
<stop offset="1" stop-color="#00E3FF"/>
</linearGradient>
<linearGradient id="paint1_linear_1_375" x1="42.2507" y1="24.4108" x2="12.0395" y2="24.4108" gradientUnits="userSpaceOnUse">
<stop stop-color="#FFE000"/>
<stop offset="0.41" stop-color="#FFBD00"/>
<stop offset="0.78" stop-color="#FFA500"/>
<stop offset="1" stop-color="#FF9C00"/>
</linearGradient>
<linearGradient id="paint2_linear_1_375" x1="31.0105" y1="27.2831" x2="2.58523" y2="55.6959" gradientUnits="userSpaceOnUse">
<stop stop-color="#FF3A44"/>
<stop offset="1" stop-color="#C31162"/>
</linearGradient>
<linearGradient id="paint3_linear_1_375" x1="9.11705" y1="-0.342799" x2="21.806" y2="12.3462" gradientUnits="userSpaceOnUse">
<stop stop-color="#32A071"/>
<stop offset="0.07" stop-color="#2DA771"/>
<stop offset="0.48" stop-color="#15CF74"/>
<stop offset="0.8" stop-color="#06E775"/>
<stop offset="1" stop-color="#00F076"/>
</linearGradient>
</defs>
</svg>
