<svg width="168" height="48" viewBox="0 0 168 48" fill="none" xmlns="http://www.w3.org/2000/svg">
<rect width="168" height="48" rx="8" fill="#1E1E20"/>
<path d="M31.021 22.8168C31.0345 21.7744 31.3122 20.7523 31.8282 19.8456C32.3442 18.939 33.0818 18.1772 33.9724 17.6312C33.4067 16.8255 32.6603 16.1624 31.7926 15.6946C30.9249 15.2268 29.9597 14.9672 28.9738 14.9365C26.8707 14.7163 24.8318 16.1914 23.7601 16.1914C22.6677 16.1914 21.0176 14.9583 19.2408 14.9948C18.0915 15.0318 16.9714 15.3651 15.9896 15.9621C15.0079 16.5592 14.198 17.3997 13.6388 18.4016C11.2166 22.5835 13.0233 28.7295 15.3436 32.1098C16.5045 33.7651 17.8612 35.614 19.6364 35.5484C21.3736 35.4766 22.0224 34.4438 24.1193 34.4438C26.1968 34.4438 26.8055 35.5484 28.6168 35.5068C30.4808 35.4766 31.6553 33.8442 32.7754 32.1732C33.6095 30.9938 34.2513 29.6903 34.6771 28.311C33.5942 27.8542 32.67 27.0896 32.0198 26.1126C31.3697 25.1356 31.0223 23.9893 31.021 22.8168Z" fill="white"/>
<path d="M27.5999 12.7135C28.6162 11.4968 29.117 9.93292 28.9957 8.354C27.4429 8.51664 26.0086 9.25669 24.9785 10.4267C24.4748 10.9983 24.0891 11.6633 23.8433 12.3836C23.5975 13.1039 23.4965 13.8655 23.5461 14.6248C24.3227 14.6328 25.0911 14.4649 25.7933 14.1338C26.4955 13.8028 27.1132 13.3171 27.5999 12.7135Z" fill="white"/>
<path d="M52.9802 31.3583H47.052L45.6283 35.5502H43.1174L48.7325 20.0412H51.3413L56.9564 35.5502H54.4026L52.9802 31.3583ZM47.6659 29.4239H52.365L50.0485 22.6208H49.9837L47.6659 29.4239Z" fill="white"/>
<path d="M69.0831 29.897C69.0831 33.4108 67.1971 35.6683 64.3511 35.6683C63.6301 35.7059 62.9131 35.5403 62.2821 35.1904C61.6512 34.8406 61.1318 34.3206 60.7834 33.69H60.7295V39.2906H58.402V24.2427H60.655V26.1234H60.6978C61.0622 25.4959 61.5903 24.9786 62.2261 24.6266C62.8619 24.2746 63.5815 24.101 64.3083 24.1244C67.1861 24.1244 69.0831 26.3929 69.0831 29.897ZM66.6908 29.897C66.6908 27.6077 65.5044 26.1027 63.6943 26.1027C61.9159 26.1027 60.7198 27.6394 60.7198 29.897C60.7198 32.1753 61.9159 33.701 63.6943 33.701C65.5044 33.701 66.6908 32.207 66.6908 29.897Z" fill="white"/>
<path d="M81.5631 29.897C81.5631 33.4108 79.6772 35.6683 76.8311 35.6683C76.1101 35.7059 75.3931 35.5403 74.7622 35.1904C74.1312 34.8406 73.6118 34.3206 73.2634 33.69H73.2096V39.2906H70.8821V24.2427H73.135V26.1234H73.1778C73.5422 25.4959 74.0703 24.9786 74.7061 24.6266C75.3419 24.2746 76.0615 24.101 76.7883 24.1244C79.6662 24.1244 81.5631 26.3929 81.5631 29.897ZM79.1708 29.897C79.1708 27.6077 77.9844 26.1027 76.1743 26.1027C74.396 26.1027 73.1998 27.6394 73.1998 29.897C73.1998 32.1753 74.396 33.701 76.1743 33.701C77.9845 33.701 79.1708 32.207 79.1708 29.897H79.1708Z" fill="white"/>
<path d="M89.8115 31.2289C89.984 32.7668 91.4823 33.7767 93.5296 33.7767C95.4914 33.7767 96.9029 32.7668 96.9029 31.3801C96.9029 30.1763 96.0516 29.4555 94.036 28.9615L92.0204 28.4773C89.1645 27.7894 87.8387 26.4576 87.8387 24.2964C87.8387 21.6205 90.1772 19.7825 93.4978 19.7825C96.7842 19.7825 99.0371 21.6205 99.1129 24.2964H96.7634C96.6228 22.7486 95.3398 21.8144 93.4648 21.8144C91.5898 21.8144 90.3068 22.7596 90.3068 24.1354C90.3068 25.2318 91.1263 25.877 93.1309 26.3709L94.8444 26.7905C98.0354 27.543 99.3612 28.8212 99.3612 31.0897C99.3612 33.9913 97.0435 35.8085 93.3572 35.8085C89.9081 35.8085 87.5794 34.0339 87.429 31.2288L89.8115 31.2289Z" fill="white"/>
<path d="M104.384 21.5669V24.2428H106.541V26.0808H104.384V32.3144C104.384 33.2828 104.816 33.734 105.764 33.734C106.02 33.7296 106.276 33.7117 106.53 33.6803V35.5074C106.104 35.5868 105.67 35.6227 105.237 35.6147C102.941 35.6147 102.046 34.7548 102.046 32.5619V26.0808H100.397V24.2428H102.046V21.5669H104.384Z" fill="white"/>
<path d="M107.789 29.8971C107.789 26.3394 109.891 24.1038 113.167 24.1038C116.455 24.1038 118.546 26.3393 118.546 29.8971C118.546 33.4645 116.466 35.6904 113.167 35.6904C109.87 35.6904 107.789 33.4645 107.789 29.8971ZM116.175 29.8971C116.175 27.4566 115.053 26.0162 113.167 26.0162C111.281 26.0162 110.161 27.4675 110.161 29.8971C110.161 32.3473 111.281 33.7767 113.167 33.7767C115.053 33.7767 116.175 32.3473 116.175 29.8971H116.175Z" fill="white"/>
<path d="M120.465 24.2426H122.685V26.1672H122.739C122.889 25.5661 123.242 25.0349 123.739 24.6629C124.236 24.2908 124.846 24.1006 125.466 24.1243C125.735 24.1233 126.002 24.1524 126.264 24.2109V26.3818C125.925 26.2787 125.572 26.2313 125.218 26.2416C124.88 26.2279 124.543 26.2874 124.23 26.4159C123.917 26.5444 123.636 26.7388 123.405 26.986C123.175 27.2331 123.001 27.5271 122.895 27.8476C122.789 28.1682 122.755 28.5078 122.793 28.8431V35.5499H120.465L120.465 24.2426Z" fill="white"/>
<path d="M136.995 32.229C136.682 34.2817 134.677 35.6904 132.112 35.6904C128.814 35.6904 126.766 33.4865 126.766 29.9507C126.766 26.404 128.825 24.1038 132.015 24.1038C135.152 24.1038 137.125 26.2528 137.125 29.6812V30.4764H129.116V30.6166C129.079 31.0328 129.131 31.452 129.269 31.8465C129.407 32.2409 129.628 32.6016 129.916 32.9045C130.205 33.2074 130.555 33.4457 130.943 33.6034C131.331 33.7612 131.748 33.8348 132.166 33.8194C132.716 33.8708 133.268 33.7438 133.74 33.4572C134.212 33.1707 134.578 32.7399 134.785 32.229L136.995 32.229ZM129.127 28.8543H134.796C134.817 28.4801 134.76 28.1057 134.629 27.7545C134.498 27.4032 134.295 27.0829 134.034 26.8134C133.773 26.5439 133.459 26.3312 133.111 26.1885C132.764 26.0459 132.39 25.9764 132.015 25.9844C131.636 25.9822 131.26 26.0548 130.909 26.1981C130.558 26.3414 130.24 26.5526 129.971 26.8194C129.703 27.0862 129.49 27.4034 129.345 27.7526C129.2 28.1019 129.126 28.4763 129.127 28.8543V28.8543Z" fill="white"/>
<path d="M47.3743 8.36734C47.8622 8.33242 48.3519 8.40594 48.8079 8.58257C49.2639 8.75921 49.675 9.03457 50.0113 9.38879C50.3477 9.74302 50.6011 10.1673 50.7531 10.631C50.9052 11.0946 50.9521 11.5862 50.8906 12.0702C50.8906 14.4509 49.6003 15.8194 47.3743 15.8194H44.675V8.36734H47.3743ZM45.8357 14.7655H47.2446C47.5933 14.7863 47.9423 14.7293 48.2661 14.5986C48.5899 14.468 48.8804 14.267 49.1164 14.0102C49.3525 13.7535 49.5282 13.4475 49.6307 13.1145C49.7333 12.7816 49.76 12.43 49.7091 12.0854C49.7563 11.7421 49.7268 11.3927 49.6227 11.0622C49.5186 10.7316 49.3425 10.4281 49.107 10.1734C48.8715 9.91875 48.5823 9.71916 48.2604 9.58898C47.9384 9.4588 47.5915 9.40124 47.2446 9.42044H45.8357V14.7655Z" fill="white"/>
<path d="M52.2017 13.0048C52.1663 12.6353 52.2087 12.2624 52.3262 11.9101C52.4437 11.5578 52.6338 11.2339 52.8842 10.9592C53.1346 10.6845 53.4398 10.4649 53.7803 10.3147C54.1208 10.1645 54.489 10.0869 54.8613 10.0869C55.2336 10.0869 55.6018 10.1645 55.9423 10.3147C56.2827 10.4649 56.588 10.6845 56.8384 10.9592C57.0888 11.2339 57.2789 11.5578 57.3964 11.9101C57.5139 12.2624 57.5563 12.6353 57.5208 13.0048C57.557 13.3748 57.5151 13.7482 57.3979 14.1011C57.2807 14.4539 57.0907 14.7784 56.8402 15.0537C56.5898 15.329 56.2843 15.5489 55.9435 15.6995C55.6027 15.85 55.234 15.9278 54.8613 15.9278C54.4885 15.9278 54.1199 15.85 53.7791 15.6995C53.4383 15.5489 53.1328 15.329 52.8824 15.0537C52.6319 14.7784 52.4419 14.4539 52.3247 14.1011C52.2075 13.7482 52.1656 13.3748 52.2017 13.0048ZM56.376 13.0048C56.376 11.7858 55.8269 11.0729 54.8631 11.0729C53.8957 11.0729 53.3515 11.7858 53.3515 13.0049C53.3515 14.2337 53.8957 14.941 54.8631 14.941C55.8269 14.941 56.3761 14.2288 56.3761 13.0048H56.376Z" fill="white"/>
<path d="M64.5914 15.8191H63.4368L62.2712 11.6772H62.1832L61.0225 15.8191H59.8789L58.3244 10.1953H59.4533L60.4635 14.4866H60.5467L61.7062 10.1953H62.7739L63.9334 14.4866H64.0214L65.0268 10.1953H66.1398L64.5914 15.8191Z" fill="white"/>
<path d="M67.4472 10.1951H68.5186V11.0885H68.6018C68.7429 10.7677 68.9808 10.4987 69.2825 10.3191C69.5842 10.1395 69.9345 10.0582 70.2847 10.0866C70.5591 10.066 70.8347 10.1073 71.0909 10.2073C71.3471 10.3073 71.5775 10.4636 71.765 10.6645C71.9525 10.8653 72.0922 11.1057 72.1739 11.3678C72.2555 11.6298 72.277 11.9068 72.2367 12.1783V15.8189H71.1237V12.457C71.1237 11.5532 70.7299 11.1038 69.9068 11.1038C69.7205 11.0951 69.5345 11.1267 69.3616 11.1965C69.1887 11.2662 69.033 11.3724 68.9051 11.5078C68.7771 11.6431 68.6801 11.8045 68.6206 11.9807C68.5611 12.157 68.5405 12.344 68.5602 12.5289V15.8189H67.4472L67.4472 10.1951Z" fill="white"/>
<path d="M74.0103 8H75.1232V15.8191H74.0103V8Z" fill="white"/>
<path d="M76.6703 13.005C76.6349 12.6354 76.6773 12.2624 76.7949 11.9102C76.9124 11.5579 77.1025 11.234 77.353 10.9592C77.6034 10.6845 77.9087 10.4649 78.2491 10.3147C78.5896 10.1645 78.9579 10.0869 79.3302 10.0869C79.7025 10.0869 80.0707 10.1645 80.4112 10.3147C80.7517 10.4649 81.057 10.6845 81.3074 10.9592C81.5578 11.234 81.7479 11.5579 81.8655 11.9102C81.983 12.2624 82.0255 12.6354 81.99 13.005C82.0261 13.3749 81.9842 13.7483 81.8669 14.1012C81.7497 14.454 81.5597 14.7785 81.3092 15.0538C81.0587 15.329 80.7532 15.549 80.4124 15.6995C80.0716 15.8501 79.7029 15.9278 79.3302 15.9278C78.9574 15.9278 78.5888 15.8501 78.248 15.6995C77.9071 15.549 77.6017 15.329 77.3512 15.0538C77.1007 14.7785 76.9107 14.454 76.7934 14.1012C76.6762 13.7483 76.6342 13.3749 76.6703 13.005ZM80.8446 13.005C80.8446 11.7859 80.2955 11.073 79.3317 11.073C78.3643 11.073 77.82 11.7859 77.82 13.005C77.82 14.2338 78.3643 14.9411 79.3317 14.9411C80.2955 14.9411 80.8446 14.2289 80.8446 13.005H80.8446Z" fill="white"/>
<path d="M83.1618 14.2288C83.1618 13.2165 83.9177 12.6329 85.2594 12.55L86.787 12.4622V11.9767C86.787 11.3828 86.3931 11.0474 85.6324 11.0474C85.0111 11.0474 84.5806 11.2748 84.457 11.6724H83.3795C83.4933 10.7065 84.4044 10.0869 85.6838 10.0869C87.0976 10.0869 87.8951 10.7888 87.8951 11.9767V15.8192H86.8237V15.0289H86.7356C86.5569 15.3124 86.3059 15.5435 86.0083 15.6986C85.7107 15.8538 85.3771 15.9273 85.0417 15.9119C84.8049 15.9364 84.5656 15.9113 84.3392 15.8379C84.1128 15.7646 83.9044 15.6448 83.7273 15.4863C83.5501 15.3277 83.4083 15.1339 83.3109 14.9173C83.2135 14.7007 83.1627 14.4662 83.1618 14.2288ZM86.787 13.7483V13.2781L85.4098 13.3659C84.6332 13.4177 84.2809 13.6812 84.2809 14.177C84.2809 14.6831 84.7212 14.9777 85.3267 14.9777C85.5041 14.9956 85.6833 14.9777 85.8536 14.9251C86.0239 14.8726 86.1819 14.7864 86.3182 14.6717C86.4544 14.557 86.5661 14.4161 86.6467 14.2575C86.7272 14.0988 86.7749 13.9257 86.787 13.7483Z" fill="white"/>
<path d="M89.3578 13.0048C89.3578 11.2278 90.2739 10.1021 91.6988 10.1021C92.0512 10.0859 92.401 10.1701 92.7073 10.3448C93.0135 10.5195 93.2636 10.7775 93.4282 11.0887H93.5114V8H94.6244V15.8191H93.5579V14.9306H93.4698C93.2925 15.2397 93.0337 15.4945 92.7215 15.6675C92.4093 15.8404 92.0557 15.9249 91.6988 15.9118C90.2641 15.9119 89.3578 14.7861 89.3578 13.0048ZM90.5076 13.0048C90.5076 14.1976 91.0714 14.9154 92.0144 14.9154C92.9525 14.9154 93.5322 14.1873 93.5322 13.0097C93.5322 11.8376 92.9464 11.0991 92.0144 11.0991C91.0775 11.0991 90.5075 11.8218 90.5075 13.0048H90.5076Z" fill="white"/>
<path d="M99.2293 13.0048C99.1938 12.6353 99.2362 12.2624 99.3537 11.9101C99.4712 11.5578 99.6613 11.2339 99.9117 10.9592C100.162 10.6845 100.467 10.4649 100.808 10.3147C101.148 10.1645 101.517 10.0869 101.889 10.0869C102.261 10.0869 102.629 10.1645 102.97 10.3147C103.31 10.4649 103.615 10.6845 103.866 10.9592C104.116 11.2339 104.306 11.5578 104.424 11.9101C104.541 12.2624 104.584 12.6353 104.548 13.0048C104.584 13.3748 104.543 13.7482 104.425 14.1011C104.308 14.4539 104.118 14.7784 103.868 15.0537C103.617 15.329 103.312 15.5489 102.971 15.6995C102.63 15.85 102.262 15.9278 101.889 15.9278C101.516 15.9278 101.147 15.85 100.807 15.6995C100.466 15.5489 100.16 15.329 99.9099 15.0537C99.6594 14.7784 99.4694 14.4539 99.3522 14.1011C99.235 13.7482 99.1931 13.3748 99.2293 13.0048ZM103.404 13.0048C103.404 11.7858 102.854 11.0729 101.891 11.0729C100.923 11.0729 100.379 11.7858 100.379 13.0049C100.379 14.2337 100.923 14.941 101.891 14.941C102.854 14.941 103.404 14.2288 103.404 13.0048Z" fill="white"/>
<path d="M106.042 10.1951H107.113V11.0885H107.196C107.337 10.7677 107.575 10.4987 107.877 10.3191C108.179 10.1395 108.529 10.0582 108.879 10.0866C109.154 10.066 109.429 10.1073 109.685 10.2073C109.942 10.3073 110.172 10.4636 110.359 10.6645C110.547 10.8653 110.687 11.1057 110.768 11.3678C110.85 11.6298 110.871 11.9068 110.831 12.1783V15.8189H109.718V12.457C109.718 11.5532 109.324 11.1038 108.501 11.1038C108.315 11.0951 108.129 11.1267 107.956 11.1965C107.783 11.2662 107.627 11.3724 107.5 11.5078C107.372 11.6431 107.275 11.8045 107.215 11.9807C107.156 12.157 107.135 12.344 107.155 12.5289V15.8189H106.042V10.1951Z" fill="white"/>
<path d="M117.12 8.79517V10.2209H118.342V11.1558H117.12V14.0476C117.12 14.6366 117.364 14.8946 117.918 14.8946C118.059 14.8941 118.201 14.8856 118.342 14.869V15.7935C118.142 15.8291 117.94 15.8481 117.737 15.8502C116.499 15.8502 116.006 15.416 116.006 14.3317V11.1557H115.111V10.2209H116.006V8.79517H117.12Z" fill="white"/>
<path d="M119.862 8H120.966V11.0991H121.054C121.202 10.7752 121.446 10.5047 121.754 10.3245C122.061 10.1442 122.417 10.0629 122.773 10.0917C123.046 10.0769 123.319 10.1223 123.572 10.2248C123.826 10.3273 124.053 10.4842 124.239 10.6845C124.424 10.8847 124.563 11.1233 124.646 11.3833C124.728 11.6432 124.752 11.9181 124.715 12.1883V15.8191H123.601V12.4621C123.601 11.5638 123.182 11.1089 122.395 11.1089C122.204 11.0932 122.012 11.1194 121.832 11.1857C121.651 11.252 121.488 11.3566 121.353 11.4925C121.218 11.6283 121.114 11.7919 121.049 11.9719C120.983 12.1519 120.958 12.344 120.975 12.5346V15.8191H119.862L119.862 8Z" fill="white"/>
<path d="M131.205 14.3006C131.054 14.8146 130.726 15.2592 130.279 15.5566C129.833 15.854 129.295 15.9854 128.761 15.9276C128.39 15.9374 128.021 15.8664 127.679 15.7197C127.338 15.5729 127.033 15.3538 126.785 15.0776C126.537 14.8014 126.353 14.4748 126.244 14.1203C126.135 13.7658 126.105 13.392 126.156 13.0249C126.107 12.6566 126.137 12.282 126.246 11.9265C126.354 11.5709 126.538 11.2428 126.784 10.9642C127.031 10.6856 127.334 10.4631 127.675 10.3117C128.015 10.1603 128.384 10.0836 128.756 10.0868C130.326 10.0868 131.272 11.1558 131.272 12.9218V13.3091H127.29V13.3713C127.273 13.5776 127.299 13.7854 127.366 13.9811C127.434 14.1769 127.542 14.3564 127.684 14.5081C127.825 14.6598 127.997 14.7803 128.188 14.862C128.378 14.9437 128.584 14.9847 128.792 14.9824C129.058 15.0142 129.328 14.9664 129.567 14.845C129.806 14.7236 130.003 14.5341 130.134 14.3006L131.205 14.3006ZM127.29 12.4882H130.139C130.153 12.2995 130.127 12.1099 130.063 11.9317C129.999 11.7534 129.899 11.5905 129.768 11.4533C129.637 11.3161 129.479 11.2076 129.304 11.135C129.129 11.0623 128.94 11.027 128.75 11.0314C128.558 11.029 128.367 11.065 128.189 11.1374C128.01 11.2097 127.848 11.317 127.712 11.4527C127.576 11.5885 127.469 11.7501 127.396 11.9279C127.324 12.1058 127.288 12.2963 127.29 12.4882H127.29Z" fill="white"/>
</svg>
