<svg width="121" height="41" viewBox="0 0 121 41" fill="none" xmlns="http://www.w3.org/2000/svg">
<path d="M85.5366 26.8788C87.9215 26.1691 89.3193 24.0785 89.3193 21.2211C89.3193 19.4689 88.8515 18.0906 87.9073 17.0608C85.1547 14.0583 80.4787 15.3558 79.3129 19.4456C78.8352 21.1214 78.836 21.2493 79.3346 23.0784C79.781 24.7158 81.1915 26.4122 82.3115 26.6587C82.6438 26.7319 83.1331 26.8872 83.3989 27.0039C84.0715 27.2992 84.137 27.2953 85.5366 26.8788H85.5366ZM81.2103 40.1024C78.7046 39.2676 76.4397 37.3003 75.2527 34.9274C74.9121 34.2466 75.0838 34.1058 77.3268 33.2272C78.9063 32.6085 79.4118 32.5398 79.4118 32.944C79.4118 33.5308 80.9146 35.107 81.9452 35.6011C84.0068 36.5894 86.7178 35.9967 88.0044 34.2764C88.598 33.4826 89.1268 31.3716 89.0302 30.1812L88.9788 29.5487L88.0012 30.2438C86.6106 31.2325 84.3112 31.6674 82.4323 31.297C80.1846 30.8539 78.7613 30.0905 77.2537 28.5192C75.6617 26.8598 74.9763 25.5156 74.4771 23.0737C73.4771 18.1826 76.5207 12.9491 81.2695 11.3941C83.6822 10.6041 87.065 11.1128 88.4922 12.4802L89.0408 13.0058L89.1196 12.3028L89.1985 11.5998H91.3733H93.5481L93.6187 21.4578C93.6929 31.8151 93.5825 33.231 92.5289 35.4339C91.4857 37.615 89.4628 39.3327 86.9782 40.147C85.4095 40.6611 82.8274 40.6411 81.2103 40.1024Z" fill="#ACACAC"/>
<path d="M44.1959 26.0945C46.0666 24.7723 46.9797 21.8986 46.3198 19.4105C45.7698 17.3369 43.4303 15.4196 41.4502 15.4196C38.2563 15.4196 35.9329 17.8242 35.9204 21.1426C35.9104 23.7879 37.5161 26.2276 39.6328 26.7835C41.0057 27.1441 43.1741 26.8167 44.1959 26.0945ZM39.3506 31.288C35.5235 30.5923 32.7471 28.0449 31.4393 24.0291C30.8351 22.1741 31.0364 18.9612 31.8708 17.1416C33.6669 13.2244 37.0832 10.9758 41.2178 10.9896C49.0961 11.0157 53.7563 19.1748 50.0546 26.4609C48.996 28.5445 45.9734 30.7663 43.5887 31.2136C41.4553 31.6137 41.1705 31.6187 39.3506 31.288Z" fill="#ACACAC"/>
<path d="M107.682 20.2684C108.574 19.8635 108.244 19.9734 108.401 19.9691C108.558 19.9648 109.564 19.523 110.425 19.1163C111.287 18.7097 112.164 18.377 112.375 18.377C112.587 18.377 111.344 18.9227 111.344 18.8153C111.344 18.7078 113.358 17.7786 114.09 17.5249C115.383 17.0765 115.408 17.0502 114.996 16.586C113.779 15.2142 111.318 14.9407 109.681 15.9952C108.353 16.8501 107.294 18.3018 107.089 19.5476C106.906 20.6652 106.817 20.6605 107.682 20.2684ZM110.222 31.2837C106.401 30.3694 103.897 27.9087 102.628 23.8237C102.285 22.7165 102.296 19.5017 102.648 18.3944C104.13 13.7288 107.497 10.9834 111.738 10.9834C114.159 10.9834 116.159 11.822 117.896 13.5656C119.138 14.8123 120.734 17.5374 120.734 18.4124C120.734 18.9784 120.444 19.1493 117.471 20.34C115.081 21.2975 113.927 21.7798 112.034 22.6131C111.702 22.7593 111.213 22.969 110.947 23.0791C110.681 23.1891 109.974 23.4926 109.376 23.7535C108.778 24.0145 108.136 24.2756 107.95 24.3338C107.37 24.5155 109.368 26.419 110.464 26.7277C112.617 27.3344 114.512 26.917 116.013 25.5053C116.579 24.9734 117.153 24.5382 117.289 24.5382C117.698 24.5382 120.725 26.6132 120.729 26.8971C120.738 27.4215 118.616 29.3984 117.214 30.173C115.928 30.8833 112.98 31.7285 112.034 31.6578C111.835 31.6429 111.019 31.4746 110.222 31.2837H110.222Z" fill="#ACACAC"/>
<path d="M12.5964 31.1805C9.64712 30.6997 6.80033 29.1076 4.31063 26.5464C2.563 24.7486 1.41405 22.8488 0.451128 20.1648C-0.161104 18.4583 -0.146963 12.8331 0.4739 11.1067C2.4368 5.6484 6.19434 1.98597 11.509 0.35088C13.1978 -0.168677 18.5674 -0.0957995 20.0875 0.467307C22.3921 1.32103 25.2136 2.98348 26.0018 3.95211C26.2906 4.307 26.1433 4.54844 24.7866 5.94452C23.9375 6.81824 23.1853 7.53297 23.1151 7.5328C23.0448 7.53264 22.671 7.25514 22.2845 6.91615C20.2824 5.16009 16.4329 4.23135 13.5167 4.80083C10.1959 5.44933 7.44166 7.5941 5.89438 10.7365C5.12 12.3092 4.61715 12.4007 4.61715 15.666C4.61715 18.7683 5.14958 19.0894 5.75988 20.4178C6.11987 21.2014 7.03419 22.5052 7.79171 23.3152C10.556 26.2709 14.5965 27.4336 18.4618 26.3858C20.6303 25.7979 21.5593 25.2922 22.9128 23.9626C24.0965 22.7998 24.8678 21.359 25.1416 19.7992L25.3029 18.8801L20.3995 18.8134L15.4962 18.7467V16.4454V14.1441L22.504 14.1646C26.3582 14.1758 29.5783 14.1856 29.6596 14.1862C29.7409 14.187 29.9245 14.7814 30.0675 15.5076C30.6057 18.2412 29.6179 22.3817 27.7223 25.3375C26.161 27.772 24.4898 29.0859 20.9332 30.6751C19.4581 31.3343 15.1442 31.5958 12.5964 31.1805V31.1805Z" fill="#ACACAC"/>
<path d="M64.5033 26.7184C65.6277 26.4312 67.1362 24.9867 67.6892 23.6678C67.9107 23.1394 68.267 22.1224 68.2144 21.1062C68.1392 19.6553 67.8369 18.6239 67.5389 18.2558C66.28 16.7007 65.6208 16.1306 64.6972 15.7983C62.6288 15.054 60.7038 15.4611 59.1473 16.9722C56.1041 19.9266 57.2716 25.4117 61.235 26.7805C62.3707 27.1728 62.753 27.1655 64.5033 26.7184ZM60.334 31.1861C57.768 30.6339 55.0876 28.5525 53.872 26.168C51.8465 22.195 52.3611 17.5878 55.1868 14.398C59.2182 9.84703 66.3248 9.84908 70.4315 14.4024C73.9646 18.3197 73.5983 25.4308 69.6875 28.8451C67.8234 30.4726 66.0087 31.2056 63.5647 31.3182C62.3793 31.3728 60.9255 31.3133 60.334 31.1861V31.1861Z" fill="#ACACAC"/>
<path d="M96.0857 15.9125V0.861084L98.4417 0.931626L100.798 1.00216V15.9125V30.8228L98.4417 30.8933L96.0857 30.9639V15.9125Z" fill="#ACACAC"/>
</svg>
