<svg width="122" height="41" viewBox="0 0 122 41" fill="none" xmlns="http://www.w3.org/2000/svg">
<path fill-rule="evenodd" clip-rule="evenodd" d="M52.6759 10.1318H52.7687C52.7819 10.1453 52.8085 10.1589 52.8615 10.1589C53.2327 10.2673 53.5377 10.3892 53.763 10.5518C53.9884 10.7009 54.1741 10.8635 54.3066 11.0261C54.4392 11.1887 54.5188 11.3648 54.5718 11.541C54.6248 11.7171 54.6646 11.8662 54.6911 12.0152C54.7176 12.232 54.8104 12.3946 54.943 12.5301C55.0889 12.6656 55.248 12.7198 55.4468 12.7198H57.1969C57.4223 12.7198 57.6212 12.6385 57.7803 12.4623C57.9261 12.2862 57.9924 12.083 57.9792 11.8662C57.8996 10.4028 57.303 9.19684 56.1893 8.26191C55.3673 7.55732 54.3066 7.11018 52.9941 6.89338C52.7554 6.85273 52.5433 6.90693 52.3709 7.05598C52.1721 7.21858 52.0792 7.43537 52.0792 7.67927V9.34589C52.0792 9.54914 52.1323 9.71174 52.2516 9.86078C52.3444 9.98273 52.4903 10.0911 52.6759 10.1318ZM56.4147 15.2942C55.8976 14.942 55.2745 14.6439 54.5851 14.4C54.3597 14.3187 54.121 14.2509 53.8824 14.1696C53.6305 14.0883 53.3653 14.0206 53.0604 13.9393L52.9278 13.8986C52.8482 13.8851 52.7554 13.858 52.6361 13.8309C52.3046 13.7496 51.9864 13.6683 51.6682 13.587C51.35 13.5057 51.0451 13.4244 50.7269 13.3431C50.6208 13.316 50.528 13.2889 50.422 13.2618C50.3292 13.2347 50.2231 13.2076 50.117 13.1805C49.9579 13.1263 49.7856 13.0585 49.6265 13.0043C49.4674 12.9501 49.3083 12.8959 49.1757 12.8282C48.7779 12.6656 48.473 12.4759 48.2609 12.2591C48.1548 12.1507 48.1018 12.0694 48.0753 12.0017C48.062 11.9475 48.0487 11.8933 48.0487 11.8662C48.0487 11.6494 48.0885 11.4055 48.1548 11.1616C48.1548 11.148 48.1681 11.1345 48.1681 11.1074C48.2476 10.9448 48.3537 10.7957 48.5128 10.6467C48.7117 10.4841 49.0166 10.3079 49.4541 10.1453C49.5337 10.1182 49.6132 10.0911 49.706 10.0776C49.7988 10.064 49.9049 10.0505 50.0242 10.0369C50.2231 10.0098 50.3689 9.91498 50.4883 9.76594C50.6076 9.61689 50.6739 9.44074 50.6739 9.23749V7.59797C50.6739 7.36762 50.5943 7.17793 50.422 7.00178C50.2364 6.83918 50.0375 6.77143 49.7988 6.79853C48.3935 6.97468 47.3063 7.40827 46.524 8.07221C45.3838 9.0207 44.827 10.2402 44.827 11.7578C44.827 12.8553 45.1584 13.736 45.8081 14.4135C46.3782 14.9962 47.0941 15.4704 47.9824 15.8498C48.2344 15.9582 48.5128 16.053 48.8045 16.1614C49.0961 16.2563 49.3878 16.3511 49.6928 16.4189C49.8519 16.4595 50.011 16.5002 50.1568 16.5408C50.3026 16.5815 50.4485 16.6086 50.5811 16.6492C50.939 16.7305 51.2838 16.8118 51.6285 16.9067C51.9732 17.0015 52.3046 17.0828 52.6361 17.1777L52.7024 17.2048C52.7422 17.2183 52.7952 17.2319 52.835 17.2454C52.8747 17.259 52.9278 17.2725 52.9941 17.2861C53.6835 17.5029 54.2403 17.7603 54.6779 18.0584C54.943 18.2346 55.0756 18.5056 55.0756 18.8307C55.0756 18.9527 55.0624 19.1017 55.0358 19.2914C55.0093 19.4676 54.9298 19.6573 54.7839 19.8334C54.6381 20.0096 54.3994 20.1857 54.0945 20.3483C53.7763 20.5109 53.3388 20.6193 52.7554 20.6735C52.5565 20.7006 52.3974 20.7955 52.2649 20.931C52.1323 21.08 52.066 21.2562 52.066 21.473V23.1125C52.066 23.3564 52.1588 23.5596 52.3312 23.7087C52.4637 23.8442 52.6361 23.9119 52.8482 23.9119H52.941C53.657 23.8306 54.3066 23.6951 54.9033 23.5054C55.4866 23.3022 56.0169 23.0447 56.4545 22.706C57.7405 21.7982 58.3769 20.4703 58.3769 18.7494C58.3769 18.0178 58.2046 17.3538 57.8731 16.7576C57.5416 16.2021 57.0511 15.7007 56.4147 15.2942ZM50.0507 20.6193C49.8121 20.5651 49.5867 20.4974 49.3878 20.4296C49.1889 20.3619 48.9901 20.267 48.8177 20.1722C48.1283 19.7657 47.7703 19.1695 47.7173 18.4107C47.704 18.1939 47.6245 18.0178 47.4654 17.8687C47.3195 17.7197 47.1339 17.6519 46.9218 17.6519H45.1584C44.9198 17.6519 44.7209 17.7468 44.5751 17.9229C44.416 18.0855 44.3497 18.3023 44.3762 18.5462C44.522 20.2399 45.185 21.5543 46.3517 22.5027C47.24 23.2209 48.3802 23.6816 49.7591 23.8984C49.7723 23.8984 49.7856 23.8984 49.7988 23.8984H50.0375C50.064 23.8984 50.1038 23.8984 50.1303 23.8848C50.4883 23.7358 50.6739 23.4783 50.6739 23.0989V21.4052C50.6739 21.2291 50.6208 21.0529 50.5015 20.9039C50.3954 20.7413 50.2496 20.6464 50.0507 20.6193ZM72.245 8.37031C71.1579 7.34052 69.726 6.81208 67.9494 6.81208H61.2009C60.9888 6.81208 60.8164 6.89338 60.6573 7.05598C60.4982 7.21858 60.4187 7.40827 60.4187 7.62507V9.27814C60.4187 9.49494 60.4982 9.68464 60.6573 9.84723C60.8164 10.0098 61.0021 10.0911 61.2009 10.0911H67.8301C68.7979 10.0911 69.5138 10.3079 69.9779 10.7551C70.4154 11.1751 70.6275 11.7849 70.6275 12.5707C70.6275 13.3837 70.4154 13.9935 69.9779 14.3864C69.5404 14.82 68.8244 15.0504 67.8301 15.0504H61.2009C60.9888 15.0504 60.8032 15.1317 60.6573 15.2942C60.5115 15.4568 60.4187 15.6465 60.4187 15.8498V22.9363C60.4187 23.1531 60.4982 23.3428 60.6573 23.4919C60.8164 23.6545 60.9888 23.7358 61.2009 23.7358H62.8847C63.0969 23.7358 63.2692 23.6545 63.4283 23.4919C63.5874 23.3293 63.667 23.1396 63.667 22.9363V18.5056C63.667 18.3836 63.7598 18.2752 63.8923 18.2752H67.9494C69.7525 18.2752 71.1844 17.7603 72.245 16.7441C73.3322 15.6872 73.8758 14.3051 73.8758 12.5572C73.8758 10.8093 73.3322 9.42719 72.245 8.37031ZM83.9653 7.31342C83.8328 6.97468 83.5941 6.81208 83.2494 6.81208H81.1016C80.9425 6.81208 80.7966 6.85273 80.664 6.93403C80.5315 7.01533 80.4386 7.13728 80.3856 7.31342L75.9971 17.8281C75.8911 18.0991 75.9176 18.3565 76.0634 18.5868C76.2225 18.8307 76.4479 18.9527 76.7396 18.9527H78.6223C78.7814 18.9527 78.9272 18.912 79.0598 18.8307C79.1924 18.7494 79.2852 18.6275 79.3382 18.4784L81.9766 12.0423C82.0562 11.8526 82.3081 11.8526 82.3876 12.0423L85.1851 18.8714L85.7287 20.2128C85.795 20.3619 85.6889 20.5245 85.5298 20.5245H75.427C75.2679 20.5245 75.1221 20.5651 74.9895 20.66C74.8569 20.7548 74.7641 20.8768 74.7111 21.0258L74.0217 22.6789C73.9023 22.9363 73.9288 23.1802 74.0879 23.4241C74.2338 23.668 74.4592 23.79 74.7376 23.79H89.6531C89.9183 23.79 90.1437 23.668 90.3028 23.4241C90.4486 23.1667 90.4751 22.9092 90.3691 22.6653L83.9653 7.31342ZM97.7009 7.09663C97.4888 6.93403 97.2634 6.87983 97.0247 6.93403C95.4337 7.25922 94.0814 8.04511 92.9677 9.29169C91.5491 10.9177 90.8464 12.9501 90.8464 15.3891C90.8464 17.8281 91.5491 19.8605 92.9677 21.4865C94.0681 22.7195 95.4205 23.519 97.0247 23.8577H97.1838C97.396 23.8577 97.5683 23.8035 97.7009 23.6816C97.8998 23.5325 97.9926 23.3293 97.9926 23.0583V21.2562C97.9926 21.0936 97.9395 20.931 97.8202 20.7819C97.7141 20.6329 97.5683 20.538 97.4092 20.4974C96.5872 20.2535 95.911 19.8334 95.3807 19.2237C94.5189 18.2481 94.0946 16.9744 94.0946 15.3891C94.0946 13.8173 94.5189 12.5436 95.3807 11.5545C95.805 11.0803 96.3088 10.7144 96.9054 10.4299C97.0247 10.3757 97.1971 10.3215 97.396 10.2673C97.555 10.2131 97.7009 10.1047 97.807 9.95563C97.913 9.80659 97.9793 9.65754 97.9793 9.48139V7.69282C97.9926 7.44892 97.8865 7.24567 97.7009 7.09663ZM103.694 8.20771C102.699 7.48957 101.546 7.02888 100.273 6.81208C100.034 6.78498 99.8222 6.85273 99.6499 7.01533C99.4642 7.15083 99.3847 7.35407 99.3847 7.61152V9.27814C99.3847 9.49494 99.4377 9.67109 99.5703 9.82013C99.6896 9.96918 99.8487 10.0505 100.061 10.0776C100.631 10.1724 101.175 10.3892 101.692 10.7144C102.368 11.1887 102.858 11.8255 103.19 12.6114C103.336 12.9366 103.588 13.0856 103.932 13.0856H105.722C105.987 13.0856 106.213 12.9772 106.372 12.7469C106.518 12.5165 106.557 12.2726 106.465 12.0152C105.908 10.4434 104.993 9.16974 103.694 8.20771ZM105.709 17.6655H103.919C103.574 17.6655 103.336 17.8281 103.177 18.1397C102.845 18.9256 102.355 19.5624 101.678 20.0367C101.201 20.3754 100.644 20.5787 100.021 20.6735C99.8222 20.7006 99.6764 20.7955 99.557 20.931C99.4377 21.08 99.3714 21.2562 99.3714 21.473V23.1396C99.3714 23.397 99.4642 23.6003 99.6366 23.7358C99.7692 23.8713 99.9415 23.939 100.154 23.939H100.26C101.546 23.7222 102.686 23.2615 103.68 22.5434C104.98 21.5814 105.894 20.3077 106.438 18.7223C106.531 18.4649 106.491 18.221 106.345 17.9907C106.199 17.7874 105.974 17.6655 105.709 17.6655ZM109.249 16.9338H119.484C119.524 16.9338 119.564 16.9202 119.604 16.9067C119.948 16.7034 120.121 16.446 120.121 16.1343V14.4271C120.121 14.1154 119.948 13.858 119.604 13.6547C119.564 13.6412 119.524 13.6276 119.484 13.6276H109.249C109.037 13.6276 108.851 13.7089 108.705 13.8715C108.559 14.0341 108.467 14.2238 108.467 14.4271V16.1343C108.467 16.3511 108.546 16.5408 108.705 16.6899C108.864 16.8389 109.037 16.9338 109.249 16.9338ZM120.863 7.05598C120.717 6.89338 120.532 6.81208 120.306 6.81208H109.249C109.037 6.81208 108.851 6.89338 108.705 7.05598C108.546 7.21858 108.467 7.39472 108.467 7.61152V9.45429C108.467 9.49494 108.48 9.53559 108.493 9.57624C108.692 9.91498 108.944 10.0911 109.249 10.0911H120.306C120.532 10.0911 120.717 10.0098 120.863 9.84723C121.009 9.68464 121.088 9.49494 121.088 9.26459V7.61152C121.088 7.39472 121.022 7.21858 120.863 7.05598ZM120.306 20.5109H109.249C108.944 20.5109 108.692 20.6871 108.493 21.0258C108.48 21.0665 108.467 21.1071 108.467 21.1478V22.9905C108.467 23.2073 108.546 23.3835 108.705 23.5461C108.864 23.7087 109.05 23.79 109.249 23.79H120.306C120.532 23.79 120.717 23.7087 120.863 23.5461C121.009 23.3835 121.088 23.2073 121.088 22.9905V21.3375C121.088 21.1071 121.009 20.9174 120.863 20.7548C120.717 20.5787 120.532 20.5109 120.306 20.5109Z" fill="#ACACAC"/>
<path fill-rule="evenodd" clip-rule="evenodd" d="M48.9896 32.5837C48.6449 32.9767 48.1145 33.2341 47.5444 33.2341C46.2982 33.2341 45.3303 32.2585 45.3303 30.8629C45.3303 29.4537 46.2982 28.4917 47.5444 28.4917C48.1145 28.4917 48.6449 28.7491 48.9896 29.1421C49.0559 29.2234 49.1752 29.2369 49.268 29.1692C49.3873 29.0879 49.4006 28.9253 49.3078 28.8169C48.8703 28.3562 48.2869 28.0716 47.5577 28.0716C46.0595 28.0716 44.8663 29.2098 44.8663 30.8629C44.8663 32.516 46.0462 33.6542 47.5577 33.6542C48.4062 33.6542 49.0161 33.2748 49.4934 32.6921L49.2813 32.5566C49.1752 32.5024 49.0559 32.5024 48.9896 32.5837ZM58.3897 28.573C55.8308 27.2451 53.9614 28.722 53.9614 30.8629C53.9614 32.4482 54.9823 33.6542 56.5335 33.6542C58.7609 33.6542 59.9011 31.1474 58.4825 28.6543C58.4692 28.6272 58.4295 28.5865 58.3897 28.573ZM56.5335 33.2341C55.2475 33.2341 54.4387 32.2179 54.4387 30.8629C54.4387 29.4808 55.2475 28.4917 56.5335 28.4917C57.8063 28.4917 58.6283 29.4944 58.6283 30.8629C58.6283 32.2179 57.8063 33.2341 56.5335 33.2341ZM69.7653 28.1529H69.7122C69.6194 28.1529 69.5266 28.2207 69.5001 28.3155L68.4792 32.1366C68.4262 32.3534 68.1212 32.3534 68.0549 32.1366L67.0208 28.3155C66.9943 28.2207 66.9147 28.1529 66.8087 28.1529H66.7291C66.6363 28.1529 66.5435 28.2207 66.517 28.3155L65.4696 32.1366C65.4033 32.3534 65.1116 32.3534 65.0453 32.1366L64.0244 28.3155C63.9979 28.2207 63.9184 28.1529 63.8123 28.1529H63.7593C63.6134 28.1529 63.5074 28.302 63.5471 28.4375L64.9393 33.3967C64.9658 33.4916 65.0586 33.5593 65.1514 33.5593H65.3237C65.4166 33.5593 65.5094 33.4916 65.5359 33.3967L66.5568 29.6841C66.6098 29.4673 66.9147 29.4673 66.981 29.6841L68.0019 33.3967C68.0284 33.4916 68.108 33.5593 68.214 33.5593H68.3864C68.4792 33.5593 68.572 33.4916 68.5985 33.3967L69.9774 28.4375C70.0172 28.2884 69.9111 28.1529 69.7653 28.1529ZM78.8604 28.573C76.3016 27.2451 74.4322 28.722 74.4322 30.8629C74.4322 32.4482 75.453 33.6542 77.0043 33.6542C79.2317 33.6542 80.3719 31.1474 78.9532 28.6543C78.9267 28.6272 78.9002 28.5865 78.8604 28.573ZM77.0043 33.2341C75.7182 33.2341 74.9095 32.2179 74.9095 30.8629C74.9095 29.4808 75.7182 28.4917 77.0043 28.4917C78.2771 28.4917 79.0991 29.4944 79.0991 30.8629C79.0991 32.2179 78.2771 33.2341 77.0043 33.2341ZM86.8949 31.2423C87.5313 31.0932 88.0351 30.5648 88.0351 29.7247C88.0351 28.7356 87.3324 28.1394 86.4176 28.1394H84.6675C84.5482 28.1394 84.4421 28.2342 84.4421 28.3697V33.329C84.4421 33.4509 84.535 33.5593 84.6675 33.5593H84.6808C84.8001 33.5593 84.9062 33.4645 84.9062 33.329V31.5404C84.9062 31.4184 84.999 31.31 85.1316 31.31H85.9668C86.0331 31.31 86.1127 31.3507 86.1525 31.4049L87.5048 33.4509C87.5446 33.5187 87.6109 33.5458 87.6904 33.5458H88.1279L86.8021 31.581C86.6828 31.4726 86.7491 31.2829 86.8949 31.2423ZM85.1183 30.9036C84.999 30.9036 84.8929 30.8087 84.8929 30.6732V28.7898C84.8929 28.6678 84.9857 28.5594 85.1183 28.5594H86.3911C87.0938 28.5594 87.5711 29.0337 87.5711 29.7247C87.5711 30.4158 87.0938 30.89 86.3911 30.89H85.1183V30.9036ZM94.3858 30.5784L96.5072 28.1529H96.0299C95.9636 28.1529 95.9105 28.18 95.8708 28.2342L93.7627 30.6732C93.6301 30.8223 93.3782 30.7274 93.3782 30.5242V28.3833C93.3782 28.2613 93.2854 28.1529 93.1528 28.1529H93.1396C93.0202 28.1529 92.9142 28.2478 92.9142 28.3833V33.3425C92.9142 33.4645 93.007 33.5729 93.1396 33.5729H93.1528C93.2721 33.5729 93.3782 33.478 93.3782 33.3425V31.7572C93.3782 31.703 93.4047 31.6488 93.4312 31.6081L93.8025 31.2016C93.8953 31.1068 94.0411 31.1068 94.1339 31.2016L96.0961 33.478C96.1359 33.5322 96.2022 33.5593 96.2552 33.5593H96.7325L94.3858 30.8765C94.3195 30.7952 94.3195 30.6732 94.3858 30.5784ZM101.572 28.1529H101.559C101.439 28.1529 101.333 28.2478 101.333 28.3833V33.3425C101.333 33.4645 101.426 33.5729 101.559 33.5729H101.572C101.691 33.5729 101.797 33.478 101.797 33.3425V28.3833C101.784 28.2478 101.691 28.1529 101.572 28.1529ZM110.892 28.1529H110.879C110.76 28.1529 110.654 28.2478 110.654 28.3833V32.0688C110.654 32.2856 110.389 32.3805 110.256 32.2043L107.392 28.2613C107.352 28.2071 107.286 28.1665 107.22 28.1665H107.087C106.968 28.1665 106.862 28.2613 106.862 28.3968V33.3561C106.862 33.478 106.955 33.5864 107.087 33.5864H107.1C107.22 33.5864 107.326 33.4916 107.326 33.3561V29.6163C107.326 29.3995 107.591 29.3047 107.724 29.4808L110.601 33.4916C110.64 33.5458 110.707 33.5864 110.773 33.5864H110.892C111.012 33.5864 111.118 33.4916 111.118 33.3561V28.3968C111.104 28.2478 111.012 28.1529 110.892 28.1529ZM120.452 30.8765H118.211V31.2965H119.988C120.107 31.2965 120.213 31.3913 120.213 31.5268V32.5024C120.213 32.5702 120.186 32.6244 120.147 32.665C119.842 32.9496 119.311 33.2612 118.662 33.2612C117.415 33.2612 116.448 32.2721 116.448 30.8765C116.448 29.4673 117.415 28.5052 118.662 28.5052C119.272 28.5052 119.815 28.7491 120.2 29.1285C120.279 29.1963 120.385 29.2098 120.478 29.1421L120.664 29.0066C120.173 28.4375 119.55 28.0852 118.675 28.0852C117.19 28.0852 115.984 29.2098 115.984 30.8765C115.984 32.5431 117.177 33.6813 118.675 33.6813C119.47 33.6813 120.16 33.3425 120.624 32.8412C120.664 32.8005 120.69 32.7463 120.69 32.6786V31.1068C120.677 30.9713 120.584 30.8765 120.452 30.8765Z" fill="#ACACAC"/>
<path fill-rule="evenodd" clip-rule="evenodd" d="M14.8492 0.863799C16.785 -0.287933 19.1847 -0.287933 21.1204 0.863799L32.8274 7.77419C34.7764 8.92592 35.9696 11.0397 35.9696 13.3296V27.1504C35.9696 29.4403 34.7631 31.5541 32.8274 32.7058L21.1204 39.6162C19.1847 40.7679 16.785 40.7679 14.8492 39.6162L3.14221 32.7058C1.19324 31.5541 0 29.4403 0 27.1504V13.3296C0 11.0397 1.19324 8.92592 3.14221 7.77419L14.8492 0.863799ZM26.5828 23.0177H24.3952C23.9709 23.0177 23.6792 23.2074 23.4936 23.6003C23.0959 24.5624 22.486 25.3347 21.664 25.9038C21.0806 26.3103 20.4045 26.5678 19.6355 26.6762C19.3968 26.7168 19.2112 26.8252 19.0654 27.0013C18.9195 27.1775 18.84 27.3943 18.84 27.6517V29.6842C18.84 29.9958 18.946 30.2397 19.1714 30.4023C19.3305 30.5649 19.5427 30.6462 19.7946 30.6462H19.9272C21.4916 30.3888 22.8837 29.8197 24.1168 28.9525C25.7078 27.7872 26.8214 26.2426 27.4844 24.3049C27.5904 23.9933 27.5507 23.6952 27.3783 23.4107C27.1662 23.1668 26.901 23.0177 26.5828 23.0177ZM15.9629 9.96926C14.014 10.3622 12.3567 11.3107 11.0176 12.8283C9.28078 14.8065 8.41899 17.2861 8.41899 20.2535C8.41899 23.221 9.28078 25.687 11.0176 27.6788C12.37 29.1829 14.014 30.1449 15.9629 30.5649H16.1486C16.4005 30.5649 16.6126 30.4972 16.7717 30.3481C17.0103 30.1584 17.1297 29.9146 17.1297 29.6029V27.4078C17.1297 27.2046 17.0634 27.0149 16.9175 26.8387C16.7849 26.6626 16.6126 26.5407 16.4137 26.4865C15.4061 26.1884 14.5841 25.6735 13.9344 24.9282C12.887 23.7358 12.37 22.1912 12.37 20.2535C12.37 18.343 12.887 16.7848 13.9344 15.5789C14.4515 15.0098 15.0746 14.5491 15.8038 14.2103C15.9497 14.1426 16.1486 14.0748 16.4137 14.0206C16.6126 13.9529 16.7849 13.8174 16.9175 13.6413C17.0501 13.4651 17.1297 13.2754 17.1297 13.0722V10.9042C17.1429 10.5925 17.0236 10.3351 16.785 10.159C16.533 9.95571 16.2546 9.88796 15.9629 9.96926ZM19.1582 10.037C18.9328 10.1996 18.8267 10.4435 18.8267 10.7551V12.7876C18.8267 13.0451 18.893 13.2619 19.0521 13.438C19.198 13.6548 19.3968 13.7632 19.662 13.7903C20.3514 13.8987 21.0143 14.1561 21.664 14.5626C22.486 15.1317 23.0959 15.9041 23.4936 16.8661C23.6792 17.259 23.9709 17.4487 24.3952 17.4487H26.5828C26.9143 17.4487 27.1794 17.3132 27.3783 17.0287C27.5639 16.7442 27.6037 16.4596 27.4844 16.1344C26.8214 14.2103 25.7078 12.6657 24.1168 11.4868C22.897 10.6196 21.5049 10.0506 19.9272 9.79311C19.6355 9.75246 19.3836 9.83376 19.1582 10.037Z" fill="#ACACAC"/>
</svg>
