<svg width="120" height="44" viewBox="0 0 120 44" fill="none" xmlns="http://www.w3.org/2000/svg">
<path fill-rule="evenodd" clip-rule="evenodd" d="M91.6957 24.1115C91.6957 23.7713 91.9597 20.5172 95.4721 20.5172C97.8012 20.5172 98.6429 21.8631 99.0845 24.1115H91.6957ZM95.5992 17.0205C90.3682 17.0205 87.1504 21.0736 87.1504 25.9338C87.1504 30.1317 89.5075 34.7879 95.5992 34.7879C101.126 34.7879 102.697 31.1664 103.336 29.1405C103.336 29.1405 101.124 29.1405 100.452 29.1405C99.7915 29.1405 99.3069 29.4092 98.8564 29.977C98.6672 30.1968 97.7002 31.3238 95.76 31.3238C91.8277 31.3238 91.7706 28.1384 91.6957 27.049H103.626C103.963 22.158 101.428 17.0205 95.5992 17.0205Z" fill="#ACACAC"/>
<path fill-rule="evenodd" clip-rule="evenodd" d="M106.439 11.1218V30.1247C106.475 33.3264 107.052 34.4393 110.955 34.4393L110.951 14.8696C110.921 11.7167 110.325 11.1218 106.439 11.1218Z" fill="#ACACAC"/>
<path fill-rule="evenodd" clip-rule="evenodd" d="M115.207 11.1218V30.1247C115.241 33.3264 115.818 34.4393 119.722 34.4393L119.719 14.8696C119.689 11.7167 119.089 11.1218 115.207 11.1218H115.207Z" fill="#ACACAC"/>
<path fill-rule="evenodd" clip-rule="evenodd" d="M82.1836 27.8995C82.1836 27.8995 81.1497 27.8606 80.751 28.9726C80.1875 30.5561 79.1554 31.3238 77.3964 31.3238C74.665 31.3238 73.6236 28.6664 73.6236 25.9361C73.6236 23.3425 74.6938 20.5172 77.4956 20.5172C79.2431 20.5172 80.1703 21.3166 80.5659 22.3494C80.782 22.9158 81.1032 23.4248 82.1065 23.4248C82.6035 23.4248 85.2977 23.4248 85.2977 23.4248C85.0563 19.0627 81.3858 17.0205 77.5226 17.0205C71.83 17.0205 69.0845 21.2338 69.0845 26.136C69.0845 31.6251 72.8112 34.7879 77.4274 34.7879C81.458 34.7879 84.7595 32.7222 85.3929 27.8995H82.1836Z" fill="#ACACAC"/>
<path fill-rule="evenodd" clip-rule="evenodd" d="M66.3155 25.9513C66.3155 31.8932 62.8776 34.7881 57.1207 34.7881C51.3311 34.7881 47.9565 31.9267 47.9565 25.9513V11.1191C52.0071 11.1191 52.6534 12.2135 52.6945 15.3514L52.6892 25.9513C52.6892 28.3527 53.2921 30.7224 57.1207 30.7224C60.4971 30.7224 61.5828 29.2141 61.5828 25.9513V11.1191C65.6324 11.1191 66.2783 12.2135 66.3208 15.3514L66.3155 25.9513Z" fill="#ACACAC"/>
<path d="M36.5284 2.52774C35.0196 1.17325 32.7862 0.384249 30.1474 0.110088C24.3485 -0.484378 16.6155 1.35691 10.4338 4.95083C8.36914 6.14926 6.49095 7.55218 4.90378 9.11795C5.83003 9.38939 6.76513 9.65271 7.71754 9.88975C20.0423 12.2319 30.4136 10.32 36.5284 2.52774ZM29.1055 17.3703C21.6215 14.4514 10.3014 12.9254 3.02513 11.2171C1.8176 12.7951 0.91261 14.5057 0.423111 16.332C0.0926471 17.5603 -0.0530767 18.8366 0.0173469 20.163C0.0674042 21.204 0.452342 22.6739 1.10088 24.3672C4.37355 29.7825 19.0961 24.4618 29.1055 17.3703ZM39.448 9.45182C38.5346 11.594 36.6684 14.0913 34.1913 16.6012C36.1643 17.5702 37.7129 18.756 38.6737 20.2833C39.0369 18.7361 39.3041 17.193 39.4657 15.6955C39.6988 13.4923 39.6965 11.3868 39.448 9.45182ZM16.5145 12.1215C22.0623 13.1484 27.4023 14.0456 31.564 15.5132C35.6163 12.2441 38.4478 8.77685 38.625 5.91084C38.5546 5.71721 38.4939 5.52134 38.4172 5.33899C38.229 4.88887 38.0208 4.46087 37.7895 4.05643C37.6159 3.74969 37.4117 3.46334 37.1907 3.19416C32.0256 10.0558 24.515 12.3024 16.5145 12.1215ZM9.50316 37.6395C9.8584 38.0141 10.2101 38.3936 10.5774 38.7411C12.386 40.4543 14.3377 41.8265 16.3324 42.5928C18.2957 43.3497 20.3046 43.5234 22.3015 42.877C24.6107 42.1264 26.7804 40.705 28.7529 38.8288C29.2136 38.3909 29.6459 37.9186 30.0832 37.4494C32.0048 35.3231 33.7022 32.7688 35.1158 29.9997C30.5009 35.8678 18.196 41.5482 9.50316 37.6395ZM4.31773 30.7887C4.17065 30.553 4.03113 30.3136 3.89025 30.0752C11.9134 32.2649 24.0309 25.8104 32.0012 18.6841C35.2761 20.4322 37.1942 22.6232 36.6232 25.4901C34.1186 33.9397 12.1978 44.0419 4.31153 30.733L4.31773 30.7887ZM4.31773 30.7887L4.31153 30.733L4.31773 30.7887Z" fill="#ACACAC"/>
</svg>
