<svg width="120" height="36" viewBox="0 0 120 36" fill="none" xmlns="http://www.w3.org/2000/svg">
<path d="M19.5075 3.52807C19.0905 2.83289 18.5469 2.22745 17.9065 1.74518C17.2596 1.28965 16.551 0.935178 15.8035 0.693283C14.9913 0.419576 14.1527 0.237253 13.3024 0.149504C12.3072 0.0495882 11.3078 0.00198287 10.308 0.00687375H1.65368C1.45307 -0.0126447 1.2507 0.00950751 1.05856 0.0720181C0.866411 0.134529 0.688399 0.236126 0.535067 0.370792C0.381734 0.505458 0.256199 0.670453 0.1659 0.856003C0.0755996 1.04155 0.0223712 1.24388 0.00936745 1.45101C0.00936745 1.45101 0.00936745 1.50449 0.00936745 1.53124V16.0082C1.20922 18.6603 3.20174 20.847 5.69524 22.2483V19.3422C5.67624 19.118 5.70037 18.8921 5.76624 18.6775C5.83211 18.4629 5.93843 18.2638 6.0791 18.0915C6.21978 17.9193 6.39206 17.7774 6.58607 17.6738C6.78008 17.5702 6.99202 17.5071 7.20974 17.488H9.80603C13.3485 17.488 16.0515 16.7244 17.9151 15.197C19.7787 13.6697 20.7249 11.4054 20.7537 8.40425C20.7568 7.53936 20.6579 6.67728 20.4595 5.8369C20.2616 5.02063 19.9404 4.2415 19.5075 3.52807ZM14.4361 10.9716C14.1343 11.5066 13.6856 11.9377 13.1466 12.2107C12.5625 12.498 11.9315 12.6704 11.2859 12.7188C10.5768 12.8098 9.86287 12.8544 9.1483 12.8525H6.65587C6.05872 12.8525 5.68659 12.3533 5.68659 11.6224V5.6497C5.67798 5.51865 5.69759 5.38726 5.74402 5.26494C5.79045 5.14261 5.86255 5.03236 5.95516 4.94207C6.04777 4.85179 6.15861 4.7837 6.27974 4.74267C6.40087 4.70165 6.52931 4.68871 6.65587 4.70477H9.1483C9.95604 4.70477 10.7176 4.72854 11.433 4.77608C12.0706 4.8076 12.6964 4.96497 13.2764 5.23963C13.81 5.48435 14.2552 5.89609 14.5486 6.41634C14.8799 7.1139 15.0319 7.88739 14.99 8.66277C15.0068 9.46646 14.8156 10.2603 14.4361 10.9627V10.9716ZM5.70389 23.1219C3.56971 22.3288 1.62717 21.0699 0.00936745 19.4314V26.4292C-0.00875581 26.5625 -0.000524828 26.6982 0.0335657 26.8281C0.0676561 26.9581 0.126902 27.0796 0.207742 27.1853C0.288582 27.2911 0.389347 27.3789 0.50398 27.4435C0.618613 27.5081 0.744746 27.5482 0.874797 27.5613H4.78654C5.82505 27.5613 5.70389 26.4203 5.70389 26.4203V23.1219ZM59.4644 7.6287H56.0892C55.7671 7.60699 55.4479 7.70338 55.1881 7.90079C54.9284 8.0982 54.7448 8.38391 54.6699 8.70734L50.7495 19.8325C50.7495 19.8325 47.2878 9.69684 47.0282 8.91237C46.9552 8.55041 46.7645 8.22496 46.4875 7.98989C46.2105 7.75483 45.8639 7.62425 45.505 7.61978H42.3981C41.2904 7.61978 41.2904 8.51122 41.4375 8.85888C41.5846 9.20655 45.8339 21.2053 47.4955 25.7963C47.7572 26.3614 47.9407 26.9615 48.0407 27.5791C47.933 28.1887 47.7094 28.7703 47.383 29.2907C47.2567 29.5113 47.1119 29.7201 46.9503 29.9147C50.1524 28.9341 53.8737 25.3595 55.743 21.4995C57.6297 16.1509 60.1134 9.01934 60.226 8.65385C60.3471 8.09225 60.3471 7.6287 59.4644 7.6287ZM44.4232 31.0023C44.1337 30.9943 43.8448 30.9705 43.5578 30.931C43.203 30.8775 42.5279 30.931 42.5279 31.555V34.2293C42.5279 35.2545 43.0126 35.3258 43.2635 35.3971C44.0651 35.5782 44.8835 35.6679 45.7041 35.6645C46.6737 35.6908 47.6362 35.4864 48.5167 35.0673C49.3222 34.6481 50.0375 34.066 50.6197 33.3557C51.2799 32.5782 51.8385 31.7151 52.2813 30.7883C52.7602 29.8018 53.216 28.7113 53.6487 27.5167L54.1506 26.0994C53.1467 27.1245 48.7157 31.4302 44.4232 31.0023ZM39.3172 10.829C39.1333 10.3785 38.8822 9.96043 38.5729 9.58987C38.2602 9.2466 37.9052 8.94692 37.5171 8.69842C37.0978 8.40432 36.6514 8.15351 36.1843 7.94961C35.7088 7.75979 35.2198 7.6078 34.7217 7.49498C34.1518 7.3651 33.5732 7.27869 32.9909 7.23646C32.3678 7.17109 31.6697 7.1384 30.8965 7.1384C25.7386 7.1384 22.8019 8.81431 22.0865 12.1661C22.056 12.2911 22.0521 12.4213 22.0751 12.5479C22.0982 12.6746 22.1476 12.7945 22.22 12.8996C22.2924 13.0047 22.386 13.0923 22.4944 13.1565C22.6028 13.2207 22.7235 13.26 22.8481 13.2715H26.0242C26.8896 13.2715 26.8896 12.9952 27.2185 12.2285C27.3626 11.8112 27.6211 11.4458 27.9627 11.1766C28.7743 10.6371 29.734 10.3836 30.6975 10.4546C31.596 10.36 32.4985 10.59 33.2505 11.1053C33.8241 11.6568 34.1631 12.4193 34.1938 13.2269C34.1938 14.3323 33.865 15.0633 32.5322 15.0633C29.3734 14.9474 25.9809 15.3129 24.0683 16.445C23.1268 17.037 22.354 17.8749 21.8281 18.8737C21.3022 19.8725 21.0421 20.9967 21.0739 22.1324C21.0522 23.0171 21.2268 23.8952 21.5845 24.6998C21.9215 25.399 22.4101 26.009 23.0125 26.4827C23.6448 27.0139 24.3749 27.4081 25.1588 27.6416C26.0443 27.8885 26.9588 28.0085 27.8762 27.9981C29.1104 28.0179 30.3399 27.8374 31.5197 27.4633C32.5624 27.0232 33.5479 26.4513 34.4535 25.7606V26.3846C34.4535 26.9997 34.6352 27.5524 35.3189 27.5524H38.997C39.7412 27.5524 39.9143 27.0086 39.9143 26.3311V14.6622C39.9188 13.9343 39.8696 13.2072 39.7672 12.4871C39.6855 11.9171 39.5343 11.36 39.3172 10.829ZM34.289 22.2929C34.289 22.2929 33.3371 24.3432 29.9619 24.3432C29.1526 24.3816 28.3524 24.1537 27.6771 23.6925C27.38 23.4547 27.1451 23.1443 26.994 22.7894C26.8429 22.4344 26.7802 22.0462 26.8117 21.66C26.7745 21.1413 26.8911 20.6232 27.1461 20.1743C27.4011 19.7254 27.7825 19.3668 28.2397 19.1461C29.605 18.6058 31.0619 18.3542 32.5236 18.4062C32.7472 18.3715 32.9756 18.387 33.1929 18.4518C33.4101 18.5166 33.6112 18.6291 33.7823 18.7816C33.9533 18.9341 34.0903 19.1229 34.1838 19.3351C34.2772 19.5473 34.3249 19.7778 34.3237 20.0108L34.289 22.2929Z" fill="#ACACAC"/>
<path d="M118.4 14.7869C118.827 15.4933 119.053 16.3085 119.053 17.1403C119.053 17.9721 118.827 18.7873 118.4 19.4937C117.535 20.8487 112.818 26.0369 111.26 27.7039C109.91 29.148 108.084 30.61 106.276 30.61H68.8111C63.7397 30.61 63.4368 28.8271 63.4368 24.8513V8.63597C63.4368 4.56208 64.6051 3.37646 68.0755 3.37646H106.362C108.154 3.37646 109.755 4.32139 111.555 6.22908C113.13 7.86041 117.777 13.8242 118.4 14.7869Z" fill="#ACACAC"/>
<path d="M71.9442 9.64336V9.5453C71.9442 9.01935 71.9442 8.51123 71.0787 8.51123H67.9372C67.2016 8.51123 67.167 8.92129 67.167 9.56313V13.8421C68.4062 12.065 70.0455 10.6242 71.9442 9.64336Z" fill="#1E1E20"/>
<path d="M92.982 25.1184V24.8867V14.5638C92.982 10.2433 91.13 8.08301 87.426 8.08301C86.3951 8.09559 85.388 8.40432 84.5181 8.97445C83.5597 9.59027 82.7035 10.3608 81.9824 11.2565C81.6561 10.2884 81.0218 9.46222 80.1823 8.91205C79.2278 8.37009 78.1472 8.10802 77.0582 8.15432C75.4564 8.16054 73.9016 8.71215 72.6358 9.72326C72.3589 10.0085 67.1576 14.1805 67.1576 18.5307V25.1363C67.1576 25.3413 67.0538 26.1436 67.9279 26.1436H71.1905C72.2031 26.1436 72.1079 25.4572 72.1079 25.1719V14.4746C72.6531 13.7169 73.7695 11.9073 75.6129 11.9073C75.9077 11.8797 76.2044 11.9337 76.4722 12.0638C76.74 12.1938 76.9692 12.3953 77.136 12.6472C77.5061 13.4083 77.6677 14.2589 77.6034 15.1076V23.4425V25.1541C77.6034 25.3591 77.4995 26.1614 78.3736 26.1614H81.6017C82.6142 26.1614 82.519 25.475 82.519 25.1898V24.958V14.439C83.1075 13.6813 84.2499 11.8716 86.024 11.8716C86.3223 11.8465 86.6218 11.9014 86.8933 12.0311C87.1648 12.1608 87.399 12.3608 87.5731 12.6115C87.9492 13.3707 88.1139 14.2222 88.0491 15.0719V23.4069V25.1184C88.0491 25.3235 87.9452 26.1258 88.8193 26.1258H92.082C93.1032 26.0723 92.982 25.3948 92.982 25.1184Z" fill="#1E1E20"/>
<path d="M110.975 20.9198C110.421 22.4554 109.405 23.7686 108.076 24.6681C106.746 25.5676 105.173 26.0065 103.584 25.9208C98.5996 25.9208 95.2764 22.4264 95.2764 17.1847C95.2764 11.943 98.7381 8.27026 103.411 8.27026C108.085 8.27026 111.2 11.6043 111.399 16.9796C111.399 17.6661 111.235 18.2722 110.395 18.2722H99.8199C99.8891 21.1516 101.231 22.7294 103.619 22.7294C104.253 22.7458 104.879 22.5749 105.422 22.2368C105.964 21.8988 106.402 21.4078 106.683 20.8218C106.793 20.6559 106.942 20.521 107.116 20.4292C107.29 20.3374 107.483 20.2916 107.678 20.2958H110.404C110.486 20.2918 110.567 20.3069 110.643 20.3398C110.718 20.3728 110.785 20.4228 110.84 20.4862C110.894 20.5495 110.933 20.6246 110.955 20.7059C110.977 20.7871 110.981 20.8724 110.967 20.9555L110.975 20.9198ZM103.429 11.5953C101.447 11.5953 100.105 13.0127 99.8112 15.3483H106.908C106.726 13.3069 105.653 11.5953 103.429 11.5953Z" fill="#1E1E20"/>
</svg>
